<?xml version="1.0" standalone="no"?>
<!DOCTYPE svg PUBLIC "-//W3C//DTD SVG 20010904//EN"
 "http://www.w3.org/TR/2001/REC-SVG-20010904/DTD/svg10.dtd">
<svg version="1.0" xmlns="http://www.w3.org/2000/svg"
 width="129.000000pt" height="129.000000pt" viewBox="0 0 129.000000 129.000000"
 preserveAspectRatio="xMidYMid meet">
<metadata>
Created by potrace 1.11, written by Peter Selinger 2001-2013
</metadata>
<g transform="translate(0.000000,129.000000) scale(0.100000,-0.100000)"
fill="#000000" stroke="none">
<path d="M523 1110 c-125 -44 -204 -136 -211 -244 -6 -88 10 -131 78 -216 69
-87 98 -154 76 -179 -16 -19 -18 -127 -3 -156 6 -11 10 -30 8 -43 -3 -28 25
-62 50 -62 10 0 23 -9 29 -21 7 -11 27 -27 47 -35 42 -18 88 -6 123 31 13 14
29 25 35 25 21 0 45 36 45 68 0 17 4 33 9 36 12 8 12 154 0 161 -26 17 4 90
71 170 65 77 83 120 84 195 1 98 -48 182 -140 236 -93 55 -206 68 -301 34z
m246 -106 c61 -33 85 -63 101 -127 16 -61 3 -97 -62 -178 -52 -65 -98 -150
-98 -182 0 -16 -8 -18 -71 -15 l-70 3 -17 50 c-17 49 -46 95 -117 183 -30 38
-35 51 -35 98 0 61 9 85 49 127 75 82 214 100 320 41z"/>
<path d="M623 939 c-16 -16 -5 -39 18 -39 40 0 86 -27 93 -55 8 -33 39 -31 44
4 4 25 -30 68 -63 81 -44 17 -81 20 -92 9z"/>
</g>
</svg>
