<?xml version="1.0" standalone="no"?>
<!DOCTYPE svg PUBLIC "-//W3C//DTD SVG 20010904//EN"
 "http://www.w3.org/TR/2001/REC-SVG-20010904/DTD/svg10.dtd">
<svg version="1.0" xmlns="http://www.w3.org/2000/svg"
 width="1201.000000pt" height="1201.000000pt" viewBox="0 0 1201.000000 1201.000000"
 preserveAspectRatio="xMidYMid meet">
<metadata>
Created by potrace 1.11, written by Peter Selinger 2001-2013
</metadata>
<g transform="translate(0.000000,1201.000000) scale(0.100000,-0.100000)"
fill="#000000" stroke="none">
<path d="M5730 10084 c-14 -2 -65 -9 -115 -15 -524 -64 -1102 -307 -1505 -633
-228 -185 -425 -421 -562 -671 -206 -378 -287 -758 -259 -1216 31 -483 174
-829 518 -1245 59 -72 166 -200 237 -285 236 -280 332 -422 466 -684 93 -181
153 -336 185 -470 l24 -100 -83 -85 c-126 -128 -166 -224 -166 -391 0 -93 21
-163 78 -265 l40 -69 -28 -40 c-66 -97 -90 -172 -90 -290 0 -155 51 -276 158
-376 l65 -61 -23 -71 c-27 -89 -36 -223 -21 -298 43 -206 220 -352 458 -379
47 -5 81 -14 94 -26 11 -9 49 -59 86 -111 136 -193 303 -310 509 -359 95 -22
317 -14 429 15 210 56 344 156 495 369 70 98 89 112 153 112 159 0 369 131
430 268 49 110 55 287 13 423 l-14 46 55 64 c122 140 166 238 167 379 1 104
-21 176 -79 267 l-42 65 48 86 c63 112 78 197 61 338 -16 139 -50 206 -156
308 l-84 81 23 101 c42 183 151 426 311 695 108 180 229 337 534 689 292 337
430 590 516 945 132 547 49 1117 -232 1603 -240 413 -589 729 -1073 970 -336
168 -657 265 -1021 307 -112 14 -527 19 -600 9z m416 -664 c377 -30 722 -139
1042 -329 402 -237 666 -552 791 -944 48 -150 64 -261 64 -437 0 -182 -18
-297 -69 -450 -69 -206 -161 -352 -376 -594 -234 -264 -302 -345 -400 -473
-295 -392 -474 -778 -568 -1231 -16 -73 -30 -135 -32 -137 -2 -2 -272 -6 -600
-7 -409 -2 -600 0 -608 8 -5 5 -24 78 -40 161 -52 263 -114 441 -234 682 -156
312 -309 526 -656 920 -234 266 -295 347 -360 472 -194 377 -210 827 -42 1219
281 658 1047 1119 1908 1148 28 1 109 -3 180 -8z"/>
<path d="M5891 8514 c-70 -70 -75 -167 -13 -227 35 -34 64 -42 213 -62 145
-19 222 -36 336 -76 166 -58 293 -140 352 -228 45 -67 57 -97 71 -176 13 -74
46 -143 82 -168 37 -27 122 -28 168 -1 21 11 45 38 58 64 21 39 23 55 18 120
-25 361 -328 641 -816 757 -79 18 -145 26 -267 30 l-163 6 -39 -39z"/>
</g>
</svg>
